<svg width="64" height="64" viewBox="0 0 64 64" fill="none" xmlns="http://www.w3.org/2000/svg">
<path fill-rule="evenodd" clip-rule="evenodd" d="M33.5162 42.176C36.4362 39.244 39.2442 36.436 42.1762 33.516C45.9042 29.548 46.5962 25.868 44.8602 24.58L41.3042 22.528C40.237 21.9107 39.4584 20.8949 39.1396 19.7038C38.8209 18.5128 38.988 17.2439 39.6042 16.176L44.9402 6.928C45.2459 6.399 45.6528 5.9354 46.1377 5.56367C46.6225 5.19193 47.1759 4.91935 47.7661 4.76149C48.3563 4.60363 48.9719 4.56357 49.5776 4.64362C50.1833 4.72366 50.7673 4.92224 51.2962 5.228L54.8522 7.28C66.3882 13.94 52.9962 35.332 47.3962 40.932L40.9322 47.396C35.3322 52.996 13.9402 66.388 7.28023 54.852L5.22823 51.292C4.61198 50.2241 4.44488 48.9552 4.76364 47.7642C5.0824 46.5731 5.86095 45.5573 6.92823 44.94L16.1762 39.6C17.2441 38.9837 18.513 38.8166 19.7041 39.1354C20.8951 39.4542 21.9109 40.2327 22.5282 41.3L24.5842 44.86C25.8682 46.592 29.5442 45.9 33.5162 42.172V42.176Z" fill="white"/>
</svg>
