<svg width="127" height="158" viewBox="0 0 127 158" fill="none" xmlns="http://www.w3.org/2000/svg">
<g clip-path="url(#clip0_90223_5)">
<path d="M20.3938 0.123425C21.1336 0.320925 22.2309 0.950457 22.7858 1.51827C23.6612 2.40702 48.9256 35.8092 49.3818 36.6733C50.6148 39.0309 50.3682 41.7836 48.7283 43.808C48.494 44.1042 45.6828 46.4372 42.4893 49.0047C36.4722 53.8311 36.2503 54.0409 35.6461 55.4358C35.0296 56.843 34.8323 58.8797 35.1282 60.7436C35.4735 62.8544 36.5215 65.6687 38.0874 68.693C40.1836 72.7294 40.5658 73.2601 51.9218 88.1467L62.6983 102.305L65.4726 105.23C70.9225 110.995 74.3503 113.871 77.2478 115.118C78.3205 115.587 78.3945 115.599 79.7755 115.599C81.2921 115.599 81.8963 115.426 82.8087 114.735C83.0183 114.575 85.287 111.859 87.827 108.711C90.367 105.564 92.6358 102.836 92.8577 102.638C94.8675 100.935 97.9131 101.169 99.7626 103.144C100.416 103.848 125.619 137.077 126.1 137.867C127.481 140.163 127.197 143.397 125.422 145.372C125.039 145.804 115.04 153.285 112.832 154.791C109.355 157.161 103.203 158.37 97.0746 157.877C79.8248 156.469 60.2816 143.731 41.0713 121.339C26.3122 104.144 14.2287 85.1966 7.37317 68.5078C3.0453 57.9786 0.702587 48.4245 0.110742 38.8828C-0.493433 29.193 1.50404 19.4414 5.26472 13.7386C5.88123 12.8005 15.3877 1.72811 16.0659 1.1603C16.818 0.518425 17.9154 0.0987378 18.9635 0.0493628C19.4813 0.0246753 20.1225 0.0617065 20.3938 0.123425Z" fill="black"/>
</g>
<defs>
<clipPath id="clip0_90223_5">
<rect width="127" height="158" fill="white" transform="matrix(-1 0 0 1 127 0)"/>
</clipPath>
</defs>
</svg>
